<svg width="383" height="239" viewBox="0 0 383 239" fill="none" xmlns="http://www.w3.org/2000/svg">
<path d="M56.78 68L41.93 28.94L27.08 68H17.36L0.89 4.1H11.96L23.57 50.54L41.93 3.01999L60.2 50.54L71.9 4.1H83.06L66.5 68H56.78ZM106.367 68.9C99.6472 68.9 94.1272 66.71 89.8072 62.33C85.4872 57.89 83.3272 52.28 83.3272 45.5C83.3272 38.72 85.4572 33.14 89.7172 28.76C93.9772 24.32 99.5572 22.1 106.457 22.1C113.417 22.1 119.027 24.53 123.287 29.39C127.547 34.19 129.437 40.37 128.957 47.93H93.1372C93.2572 51.41 94.5772 54.32 97.0972 56.66C99.6172 59 102.827 60.17 106.727 60.17C112.247 60.17 116.027 58.07 118.067 53.87H128.417C127.037 58.25 124.397 61.85 120.497 64.67C116.597 67.49 111.887 68.9 106.367 68.9ZM106.187 30.38C102.947 30.38 100.157 31.31 97.8172 33.17C95.5372 34.97 94.0672 37.55 93.4072 40.91H118.337C117.617 37.43 116.147 34.82 113.927 33.08C111.707 31.28 109.127 30.38 106.187 30.38ZM137.324 68V0.499995H147.224V68H137.324ZM179.067 68.9C172.287 68.9 166.647 66.65 162.147 62.15C157.707 57.59 155.487 52.04 155.487 45.5C155.487 38.96 157.707 33.44 162.147 28.94C166.647 24.38 172.287 22.1 179.067 22.1C184.887 22.1 189.837 23.72 193.917 26.96C198.057 30.2 200.727 34.37 201.927 39.47H191.487C190.587 36.95 189.027 34.94 186.807 33.44C184.647 31.88 182.067 31.1 179.067 31.1C175.107 31.1 171.867 32.45 169.347 35.15C166.827 37.85 165.567 41.3 165.567 45.5C165.567 49.7 166.827 53.15 169.347 55.85C171.867 58.55 175.107 59.9 179.067 59.9C182.067 59.9 184.647 59.15 186.807 57.65C189.027 56.09 190.587 54.05 191.487 51.53H201.927C200.727 56.63 198.057 60.8 193.917 64.04C189.837 67.28 184.887 68.9 179.067 68.9ZM246.565 62.15C242.065 66.65 236.485 68.9 229.825 68.9C223.165 68.9 217.555 66.65 212.995 62.15C208.495 57.59 206.245 52.04 206.245 45.5C206.245 38.96 208.495 33.44 212.995 28.94C217.555 24.38 223.165 22.1 229.825 22.1C236.485 22.1 242.065 24.38 246.565 28.94C251.125 33.44 253.405 38.96 253.405 45.5C253.405 52.04 251.125 57.59 246.565 62.15ZM229.825 59.72C233.725 59.72 236.935 58.37 239.455 55.67C242.035 52.91 243.325 49.52 243.325 45.5C243.325 41.48 242.035 38.12 239.455 35.42C236.935 32.66 233.725 31.28 229.825 31.28C225.865 31.28 222.595 32.66 220.015 35.42C217.495 38.12 216.235 41.48 216.235 45.5C216.235 49.52 217.495 52.91 220.015 55.67C222.595 58.37 225.865 59.72 229.825 59.72ZM318.892 68V42.71C318.892 39.05 318.202 36.2 316.822 34.16C315.502 32.12 313.522 31.1 310.882 31.1C307.702 31.1 305.152 32.33 303.232 34.79C301.312 37.25 300.292 40.7 300.172 45.14V68H290.272V42.71C290.272 39.05 289.582 36.2 288.202 34.16C286.882 32.12 284.902 31.1 282.262 31.1C278.962 31.1 276.322 32.39 274.342 34.97C272.422 37.55 271.462 41.18 271.462 45.86V68H261.562V23H271.462V29.12C274.222 24.44 278.482 22.1 284.242 22.1C291.022 22.1 295.672 25.07 298.192 31.01C299.452 28.19 301.372 26 303.952 24.44C306.592 22.88 309.472 22.1 312.592 22.1C317.632 22.1 321.592 23.81 324.472 27.23C327.352 30.65 328.792 35.27 328.792 41.09V68H318.892ZM359.545 68.9C352.825 68.9 347.305 66.71 342.985 62.33C338.665 57.89 336.505 52.28 336.505 45.5C336.505 38.72 338.635 33.14 342.895 28.76C347.155 24.32 352.735 22.1 359.635 22.1C366.595 22.1 372.205 24.53 376.465 29.39C380.725 34.19 382.615 40.37 382.135 47.93H346.315C346.435 51.41 347.755 54.32 350.275 56.66C352.795 59 356.005 60.17 359.905 60.17C365.425 60.17 369.205 58.07 371.245 53.87H381.595C380.215 58.25 377.575 61.85 373.675 64.67C369.775 67.49 365.065 68.9 359.545 68.9ZM359.365 30.38C356.125 30.38 353.335 31.31 350.995 33.17C348.715 34.97 347.245 37.55 346.585 40.91H371.515C370.795 37.43 369.325 34.82 367.105 33.08C364.885 31.28 362.305 30.38 359.365 30.38ZM19.25 153V99.18H0.71V89.1H48.41V99.18H29.78V153H19.25ZM83.9185 147.15C79.4185 151.65 73.8385 153.9 67.1785 153.9C60.5185 153.9 54.9085 151.65 50.3485 147.15C45.8485 142.59 43.5985 137.04 43.5985 130.5C43.5985 123.96 45.8485 118.44 50.3485 113.94C54.9085 109.38 60.5185 107.1 67.1785 107.1C73.8385 107.1 79.4185 109.38 83.9185 113.94C88.4785 118.44 90.7585 123.96 90.7585 130.5C90.7585 137.04 88.4785 142.59 83.9185 147.15ZM67.1785 144.72C71.0785 144.72 74.2885 143.37 76.8085 140.67C79.3885 137.91 80.6785 134.52 80.6785 130.5C80.6785 126.48 79.3885 123.12 76.8085 120.42C74.2885 117.66 71.0785 116.28 67.1785 116.28C63.2185 116.28 59.9485 117.66 57.3685 120.42C54.8485 123.12 53.5885 126.48 53.5885 130.5C53.5885 134.52 54.8485 137.91 57.3685 140.67C59.9485 143.37 63.2185 144.72 67.1785 144.72ZM148.447 143.91C154.687 143.91 159.967 141.69 164.287 137.25C168.607 132.81 170.767 127.41 170.767 121.05C170.767 114.69 168.607 109.29 164.287 104.85C159.967 100.41 154.687 98.19 148.447 98.19C142.147 98.19 136.837 100.41 132.517 104.85C128.197 109.29 126.037 114.69 126.037 121.05C126.037 127.41 128.197 132.81 132.517 137.25C136.837 141.69 142.147 143.91 148.447 143.91ZM171.847 144.45C165.427 150.87 157.627 154.08 148.447 154.08C139.267 154.08 131.467 150.9 125.047 144.54C118.627 138.12 115.417 130.29 115.417 121.05C115.417 111.81 118.627 104.01 125.047 97.65C131.467 91.23 139.267 88.02 148.447 88.02C157.627 88.02 165.427 91.23 171.847 97.65C178.267 104.07 181.477 111.87 181.477 121.05C181.477 130.23 178.267 138.03 171.847 144.45ZM205.996 153.9C200.836 153.9 196.756 152.19 193.756 148.77C190.756 145.29 189.256 140.67 189.256 134.91V108H199.156V133.29C199.156 136.89 199.936 139.74 201.496 141.84C203.056 143.88 205.276 144.9 208.156 144.9C211.516 144.9 214.186 143.64 216.166 141.12C218.146 138.54 219.136 134.88 219.136 130.14V108H229.036V153H219.136V146.88C216.496 151.56 212.116 153.9 205.996 153.9ZM240.556 153V108H250.456V116.01C251.296 113.49 252.826 111.45 255.046 109.89C257.326 108.33 259.756 107.55 262.336 107.55C263.896 107.55 265.186 107.67 266.206 107.91V118.08C264.766 117.54 263.116 117.27 261.256 117.27C258.256 117.27 255.706 118.5 253.606 120.96C251.506 123.36 250.456 126.72 250.456 131.04V153H240.556ZM56.78 238L41.93 198.94L27.08 238H17.36L0.89 174.1H11.96L23.57 220.54L41.93 173.02L60.2 220.54L71.9 174.1H83.06L66.5 238H56.78ZM106.367 238.9C99.6472 238.9 94.1272 236.71 89.8072 232.33C85.4872 227.89 83.3272 222.28 83.3272 215.5C83.3272 208.72 85.4572 203.14 89.7172 198.76C93.9772 194.32 99.5572 192.1 106.457 192.1C113.417 192.1 119.027 194.53 123.287 199.39C127.547 204.19 129.437 210.37 128.957 217.93H93.1372C93.2572 221.41 94.5772 224.32 97.0972 226.66C99.6172 229 102.827 230.17 106.727 230.17C112.247 230.17 116.027 228.07 118.067 223.87H128.417C127.037 228.25 124.397 231.85 120.497 234.67C116.597 237.49 111.887 238.9 106.367 238.9ZM106.187 200.38C102.947 200.38 100.157 201.31 97.8172 203.17C95.5372 204.97 94.0672 207.55 93.4072 210.91H118.337C117.617 207.43 116.147 204.82 113.927 203.08C111.707 201.28 109.127 200.38 106.187 200.38ZM161.714 238.9C158.654 238.9 155.804 238.24 153.164 236.92C150.584 235.54 148.604 233.89 147.224 231.97V238H137.324V170.5H147.224V199.03C148.604 197.11 150.584 195.49 153.164 194.17C155.804 192.79 158.654 192.1 161.714 192.1C167.834 192.1 172.964 194.38 177.104 198.94C181.304 203.5 183.404 209.02 183.404 215.5C183.404 221.98 181.304 227.5 177.104 232.06C172.964 236.62 167.834 238.9 161.714 238.9ZM159.914 229.9C163.814 229.9 167.024 228.52 169.544 225.76C172.064 223 173.324 219.58 173.324 215.5C173.324 211.42 172.064 208 169.544 205.24C167.024 202.48 163.814 201.1 159.914 201.1C155.954 201.1 152.714 202.48 150.194 205.24C147.674 208 146.414 211.42 146.414 215.5C146.414 219.58 147.674 223 150.194 225.76C152.714 228.52 155.954 229.9 159.914 229.9ZM207.526 238.9C202.186 238.9 197.686 237.58 194.026 234.94C190.426 232.3 188.506 228.76 188.266 224.32H198.526C199.246 228.76 202.336 230.98 207.796 230.98C210.016 230.98 211.786 230.59 213.106 229.81C214.426 228.97 215.086 227.77 215.086 226.21C215.086 224.65 214.576 223.42 213.556 222.52C212.536 221.62 210.826 220.87 208.426 220.27L201.046 218.29C193.366 216.25 189.526 211.72 189.526 204.7C189.526 200.92 191.056 197.89 194.116 195.61C197.176 193.27 201.226 192.1 206.266 192.1C211.126 192.1 215.116 193.33 218.236 195.79C221.356 198.25 223.096 201.52 223.456 205.6H213.556C212.596 201.88 210.136 200.02 206.176 200.02C204.196 200.02 202.606 200.44 201.406 201.28C200.206 202.06 199.606 203.17 199.606 204.61C199.606 207.19 201.616 208.99 205.636 210.01L213.196 211.99C221.176 214.03 225.166 218.56 225.166 225.58C225.166 229.84 223.516 233.14 220.216 235.48C216.976 237.76 212.746 238.9 207.526 238.9ZM238.342 183.19C236.542 183.19 234.982 182.56 233.662 181.3C232.342 179.98 231.682 178.39 231.682 176.53C231.682 174.73 232.342 173.2 233.662 171.94C234.982 170.62 236.542 169.96 238.342 169.96C240.202 169.96 241.762 170.62 243.022 171.94C244.282 173.2 244.912 174.73 244.912 176.53C244.912 178.39 244.282 179.98 243.022 181.3C241.762 182.56 240.202 183.19 238.342 183.19ZM233.392 238V193H243.292V238H233.392ZM274.325 238.45C269.765 238.45 266.045 237.19 263.165 234.67C260.345 232.09 258.935 228.37 258.935 223.51V201.82H249.575V193H258.935V180.49H268.835V193H281.705V201.82H268.835V221.89C268.835 224.65 269.435 226.63 270.635 227.83C271.835 228.97 273.755 229.54 276.395 229.54C278.555 229.54 280.325 229.24 281.705 228.64V237.46C279.545 238.12 277.085 238.45 274.325 238.45ZM308.568 238.9C301.848 238.9 296.328 236.71 292.008 232.33C287.688 227.89 285.528 222.28 285.528 215.5C285.528 208.72 287.658 203.14 291.918 198.76C296.178 194.32 301.758 192.1 308.658 192.1C315.618 192.1 321.228 194.53 325.488 199.39C329.748 204.19 331.638 210.37 331.158 217.93H295.338C295.458 221.41 296.778 224.32 299.298 226.66C301.818 229 305.028 230.17 308.928 230.17C314.448 230.17 318.228 228.07 320.268 223.87H330.618C329.238 228.25 326.598 231.85 322.698 234.67C318.798 237.49 314.088 238.9 308.568 238.9ZM308.388 200.38C305.148 200.38 302.358 201.31 300.018 203.17C297.738 204.97 296.268 207.55 295.608 210.91H320.538C319.818 207.43 318.348 204.82 316.128 203.08C313.908 201.28 311.328 200.38 308.388 200.38ZM342.315 216.58L340.425 198.94V174.1H350.415V198.94L348.435 216.58H342.315ZM345.375 238.72C343.275 238.72 341.445 237.97 339.885 236.47C338.385 234.91 337.635 233.05 337.635 230.89C337.635 228.79 338.385 226.96 339.885 225.4C341.445 223.84 343.275 223.06 345.375 223.06C347.535 223.06 349.365 223.84 350.865 225.4C352.425 226.96 353.205 228.79 353.205 230.89C353.205 233.05 352.425 234.91 350.865 236.47C349.365 237.97 347.535 238.72 345.375 238.72Z" fill="#130F49"/>
</svg>
