<svg width="904" height="749" viewBox="0 0 904 749" fill="none" xmlns="http://www.w3.org/2000/svg">
<path fill-rule="evenodd" clip-rule="evenodd" d="M393.321 728.934C352.729 749.271 305.139 750.928 260.108 745.136C172.929 733.923 84.8905 691.659 41.5428 615.194C22.845 582.211 13.4015 544.812 6.82229 507.473C-1.96435 457.607 -5.51379 403.997 16.5662 358.43C35.1802 320.016 69.7238 292.063 104.139 266.811C140.209 240.345 179.283 214.613 223.707 209.324C351.855 206.786 338.873 254.926 472.705 178.362C511.61 156.104 627.281 194.31 666.363 206.786C705.445 219.262 782.567 257.751 834.868 303.474C856.73 322.585 876.895 344.458 889.182 370.768C907.578 410.162 906.685 456.052 898.102 498.674C889.445 541.665 870.649 586.378 832.469 607.954C815.22 617.701 795.33 621.882 775.582 623.482C693.109 630.162 605.379 594.952 529.907 628.87C478.24 652.089 443.965 703.56 393.321 728.934Z" fill="#384579"/>
<path fill-rule="evenodd" clip-rule="evenodd" d="M84.0827 375.067C99.5798 359.802 114.145 344.063 123.948 330.346C137.441 311.464 157.224 293.511 180.666 290.047C208.004 286.008 233.111 304.855 252.983 324.058C280.437 350.588 305.075 380.029 326.351 411.729C317.816 412.841 299.426 425.57 274.986 425.166C260.599 424.929 243.412 412.108 226.797 411.251C215.257 410.657 202.659 422.736 191.038 421.815C170.721 420.204 151.717 405.245 134.578 402.539C124.368 400.927 110.588 411.076 102.739 409.04C81.1694 403.445 74.7772 384.234 84.0827 375.067Z" fill="white"/>
<path fill-rule="evenodd" clip-rule="evenodd" d="M548.796 612.561C615.774 590.477 688.352 616.071 758.871 615.126C790.113 614.708 823.51 607.813 845.018 585.148C797.909 557.412 762.152 513.303 736.107 465.239C710.061 417.175 692.937 364.885 675.953 312.923C653.606 300.181 624.843 321.729 600.314 313.979C587.78 310.019 572.81 299.262 563.815 308.847C558.386 314.633 548.273 311.23 542.992 305.308C537.711 299.385 534.769 291.513 528.814 286.269C522.859 281.026 511.556 280.365 508.525 287.698C503.279 300.393 497.75 313.505 487.692 322.86C477.633 332.214 461.687 336.73 449.906 329.667C440.704 324.149 436.361 313.413 431.001 304.118C425.641 294.823 423.55 286.466 412.891 287.698C376.887 363.556 350.007 438.128 305.714 509.465C286.681 540.119 180.191 656.973 118.315 641.913C56.4381 626.853 61.0289 615.126 40.1331 596.608C61.8996 640.891 100.351 675.733 144.255 698.253C188.159 720.774 237.334 731.603 286.522 735.514C305.931 737.057 325.617 737.544 344.722 733.789C423.019 718.401 473.015 637.547 548.796 612.561Z" fill="white"/>
<path fill-rule="evenodd" clip-rule="evenodd" d="M480.742 315.112C487.603 306.248 491.89 295.583 498.959 286.884C506.029 278.185 517.508 271.442 528.202 274.801C538.154 277.928 543.629 288.312 548.066 297.752C550.294 302.492 557.066 302.859 561.947 300.958C566.827 299.058 571.215 295.621 576.422 295.053C587.194 293.877 595.308 305.037 605.835 307.606C621.501 311.43 637.248 295.443 652.73 299.955C659.282 301.864 664.953 307.341 671.761 306.873C658.667 275.487 648.804 242.803 635.057 211.697C621.31 180.591 603.18 150.569 576.786 129.123C574.072 126.918 571.102 124.735 567.634 124.292C564.165 123.85 560.147 125.82 559.539 129.263C557.732 139.501 555.925 149.738 554.118 159.976C553.223 165.044 550.861 171.407 545.715 171.311C542.287 171.247 539.654 167.885 539.182 164.489C538.71 161.092 539.848 157.701 540.97 154.46C544.484 144.307 547.999 134.153 551.513 124C527.401 132.701 506.501 148.851 489.176 167.744C471.85 186.637 457.839 208.29 444.409 230.124C432.911 248.819 421.772 267.735 411 286.858C425.445 284.807 438.026 296.668 446.198 308.753C451.088 315.984 456.911 324.6 465.64 324.567C471.794 324.545 476.975 319.979 480.742 315.112Z" fill="#FEFEFE"/>
<path fill-rule="evenodd" clip-rule="evenodd" d="M575.074 98.1855C573.475 97.6718 571.797 97.0879 570.707 95.8091C569.14 93.9693 569.244 91.2802 569.433 88.8707C571.297 65.0604 573.162 41.2501 575.026 17.4398C575.242 14.6808 577.949 12.6466 580.686 12.2392C583.423 11.8318 586.177 12.6607 588.82 13.48C605.871 18.7649 622.922 24.0498 639.974 29.3347C644.135 30.6246 644.357 36.4011 643.48 40.6688C642.604 44.9366 641.946 50.4164 645.672 52.6751C670.539 67.7508 696.963 80.2569 724.387 89.9298C726.16 90.555 726.291 93.2506 725.052 94.6649C723.814 96.0791 721.838 96.5356 720 96.9278C692.156 102.869 664.911 111.608 638.807 122.972C635.154 124.561 630.385 126.014 627.628 123.139C625.666 121.094 625.855 117.896 625.689 115.066C625.523 112.236 624.274 108.848 621.463 108.491C605.727 106.491 590.176 103.036 575.074 98.1855ZM633.491 49.8901C637.305 43.8495 634.586 34.7188 628.088 31.7493C612.678 24.7071 596.506 19.3353 579.945 15.7583C582.697 20.0049 582.55 25.4368 582.308 30.4917C581.376 49.9014 580.416 69.49 575.349 88.2497C574.911 89.8717 576.997 90.9268 578.637 91.2934C593.325 94.5776 608.122 97.3695 622.997 99.6628C621.772 85.3271 620.547 70.9913 619.321 56.6555C619.185 55.0622 619.059 53.3979 619.666 51.9183C620.649 49.5212 623.379 48.2184 625.969 48.1447C628.559 48.0711 631.062 48.9872 633.491 49.8901ZM630.298 61.1895C631.468 78.0103 632.637 94.8311 633.807 111.652C633.91 113.127 634.083 114.754 635.173 115.753C658.883 105.91 683.446 98.1226 708.496 92.5054C681.352 84.7118 658.453 63.391 630.298 61.1895Z" fill="#FFB61D"/>
<path fill-rule="evenodd" clip-rule="evenodd" d="M393.321 728.933C352.728 749.271 305.139 750.927 260.108 745.136C172.929 733.923 84.8905 691.659 41.5427 615.194C22.8449 582.211 13.4014 544.812 6.82223 507.473C3.21273 486.988 -3.79722 456.308 9.03859 442.383C11.9066 439.271 92.476 374.387 123.948 330.346C137.441 311.464 157.224 293.511 180.666 290.047C208.004 286.008 233.111 304.855 252.983 324.058C280.437 350.588 305.075 380.029 326.351 411.729C302.905 401.769 286.031 381.068 270.457 360.909C254.883 340.751 238.79 319.658 215.99 308.298C193.19 296.937 161.528 298.829 146.72 319.557C111.425 368.96 66.7788 411.658 15.8502 444.714C12.0197 447.2 11.6734 452.576 11.7451 457.142C12.573 509.848 18.4657 569.871 60.6302 601.507C95.8474 627.93 146.97 624.483 185.547 603.264C224.124 582.045 252.338 546.154 276.559 509.388C347.609 401.539 393.745 278.263 470.112 174.111C487.668 150.168 508.351 126.225 536.635 117.199C555.508 111.176 560.799 87.0939 560.452 67.2864C560.105 47.4788 558.231 24.9587 571.984 10.7002C569.085 43.6392 566.187 76.5782 563.288 109.517C605.531 130.49 630.205 175.144 648.313 218.692C675.203 283.36 693.456 351.426 721.765 415.485C750.074 479.544 790.258 541.096 849.658 578.198C877.154 542.402 892.833 485.099 892.833 452.351C877.154 435.261 854.881 408.528 828.823 396.491C797.759 382.141 763.681 407.298 738.728 430.711C752.519 409.718 769.076 387.621 793.48 381.675C813.18 376.876 834.264 384.034 850.609 396.033C866.953 408.032 879.414 424.455 891.634 440.636C903.988 444.714 906.685 456.052 898.102 498.674C889.445 541.665 870.649 586.378 832.469 607.953C815.22 617.701 795.33 621.882 775.582 623.481C693.109 630.162 605.379 594.952 529.907 628.87C478.24 652.089 443.965 703.56 393.321 728.933ZM548.796 612.562C615.774 590.478 688.352 616.072 758.87 615.127C790.113 614.708 823.51 607.813 845.018 585.149C797.909 557.412 762.152 513.304 736.107 465.24C710.061 417.176 692.937 364.885 675.953 312.923C653.606 300.181 624.843 321.729 600.314 313.98C587.78 310.02 572.81 299.262 563.815 308.848C558.385 314.634 548.273 311.23 542.992 305.308C537.711 299.386 534.769 291.514 528.814 286.27C522.859 281.026 511.556 280.366 508.525 287.699C503.279 300.393 497.75 313.506 487.691 322.86C477.633 332.215 461.687 336.73 449.906 329.667C440.704 324.15 436.361 313.413 431 304.118C425.64 294.823 416.762 285.53 406.104 286.762C370.099 362.62 329.824 436.451 285.531 507.787C266.498 538.441 246.354 569.067 219.094 592.706C191.834 616.346 156.236 632.516 120.304 629.228C91.3078 626.574 64.9691 611.806 40.1329 596.609C61.8995 640.891 100.351 675.733 144.255 698.254C188.159 720.775 237.334 731.603 286.522 735.514C305.931 737.058 325.617 737.544 344.722 733.789C423.018 718.401 473.015 637.548 548.796 612.562ZM480.26 311.122C487.121 302.257 491.407 291.593 498.477 282.894C505.546 274.195 517.026 267.451 527.72 270.811C537.672 273.938 543.147 284.321 547.584 293.762C549.812 298.502 556.584 298.869 561.464 296.968C566.345 295.067 570.733 291.631 575.939 291.063C586.711 289.887 594.825 301.046 605.353 303.616C621.018 307.44 636.766 291.453 652.247 295.964C658.799 297.873 664.47 303.351 671.278 302.883C658.184 271.497 648.393 240.592 634.647 209.486C620.9 178.38 591.039 123.37 567.151 120.302C542.992 117.199 506.018 144.86 488.693 163.753C471.368 182.646 457.357 204.299 443.927 226.134C432.428 244.829 421.289 263.744 410.517 282.867C424.962 280.817 437.543 292.678 445.716 304.763C450.606 311.994 456.428 320.609 465.157 320.577C471.312 320.554 476.492 315.989 480.26 311.122Z" fill="#00160A"/>
<path fill-rule="evenodd" clip-rule="evenodd" d="M373.785 58.8704C358.609 60.4103 346.231 73.7338 339.978 91.7644C338.353 96.4511 333.018 98.6158 323.656 99.5176L323.066 99.5723C302.339 101.42 288.58 106.759 281.946 118.963L281.668 119.485C281.128 120.522 280.666 121.559 279.99 123.197L279.554 124.263C277.988 128.11 277.187 129.738 275.847 131.432C271.675 136.707 265.396 138.331 252.831 138.708L251.435 138.745C221.331 139.415 200.064 143.989 182.836 156.021C177.908 159.463 174.974 162.879 174.317 167.258C173.564 172.276 176.479 177.473 181.134 180.326C184.859 182.609 189.327 183.51 194.906 183.526C201.694 183.546 208.482 182.365 214.864 180.052L215.396 179.857C216.357 179.5 217.269 179.137 218.623 178.576L221.492 177.379C227.378 174.944 230.234 174.08 233.815 173.893C239.34 173.603 243.7 175.061 252.984 179.597L254.937 180.556C256.958 181.545 258.417 182.234 259.846 182.861L260.236 183.03C275.812 189.758 291.736 190.883 317.6 188.911L322.703 188.499L334.005 187.543C336.973 187.302 339.096 187.148 341.543 186.993L343.904 186.853C353.979 186.305 364.733 186.296 382.294 186.646L394.372 186.899C418.579 187.376 429.492 187.247 441.127 186.05C454.643 184.658 463.446 175.22 467.055 161.239C469.98 149.907 468.916 136.685 464.841 130.403C456.703 117.858 444.557 110.302 433.381 113.784C429.677 114.938 425.017 112.217 422.639 107.754C421.347 105.33 420.692 103.143 419.615 98.2441L419.094 95.8726C418.793 94.5323 418.573 93.6358 418.294 92.6283C414.503 78.9084 404.149 67.193 390.999 61.744C385.229 59.3531 379.358 58.3048 373.785 58.8704ZM389.402 65.5988C401.161 70.4716 410.502 80.8978 414.092 93.1068L414.273 93.7399C414.531 94.6757 414.74 95.5244 415.029 96.8152L415.673 99.7426C416.757 104.604 417.489 106.961 418.957 109.716C422.123 115.66 428.48 119.451 434.275 117.869L434.622 117.767C443.588 114.974 454.102 121.515 461.34 132.673C464.702 137.856 465.672 149.904 463.015 160.196C459.805 172.632 452.272 180.708 440.699 181.899L439.402 182.029C428.746 183.054 418.146 183.177 396.284 182.763L380.323 182.435C363.86 182.124 353.475 182.154 343.672 182.688L339.826 182.923C337.082 183.107 334.464 183.313 330.189 183.674L318.403 184.664C292.876 186.677 277.355 185.712 262.544 179.479L261.891 179.2C260.653 178.666 259.416 178.092 257.794 177.306L254.131 175.515C244.665 170.925 239.918 169.395 233.596 169.726C229.274 169.953 226.042 170.961 219.338 173.756L216.373 174.991C215.2 175.472 214.381 175.789 213.442 176.13C207.52 178.276 201.217 179.373 194.918 179.354C190.035 179.34 186.271 178.58 183.315 176.768C179.996 174.735 177.959 171.104 178.443 167.877C178.886 164.925 181.152 162.286 185.225 159.442C201.403 148.143 221.627 143.689 250.358 142.945L251.528 142.916C266.267 142.588 273.727 140.838 279.12 134.021C280.647 132.09 281.547 130.36 283.006 126.841L284.135 124.098C284.706 122.739 285.111 121.877 285.611 120.956C291.206 110.664 303.262 105.751 321.763 103.887L323.437 103.728C334.521 102.74 341.265 100.169 343.785 93.506L343.921 93.1316C349.696 76.4745 360.945 64.3672 374.206 63.0216C378.833 62.552 383.784 63.3797 388.728 65.3264L389.402 65.5988Z" fill="#00160A"/>
<path fill-rule="evenodd" clip-rule="evenodd" d="M373.785 58.8704C358.609 60.4103 346.231 73.7338 339.978 91.7644C338.353 96.4511 333.018 98.6158 323.656 99.5176L323.066 99.5723C302.339 101.42 288.58 106.759 281.946 118.963L281.668 119.485C281.128 120.522 280.666 121.559 279.99 123.197L279.554 124.263C277.988 128.11 277.187 129.738 275.847 131.432C271.675 136.707 265.396 138.331 252.831 138.708L251.435 138.745C221.331 139.415 200.064 143.989 182.836 156.021C177.908 159.463 174.974 162.879 174.317 167.258C173.564 172.276 176.479 177.473 181.134 180.326C184.859 182.609 189.327 183.51 194.906 183.526C201.694 183.546 208.482 182.365 214.864 180.052L215.396 179.857C216.357 179.5 217.269 179.137 218.623 178.576L221.492 177.379C227.378 174.944 230.234 174.08 233.815 173.893C239.34 173.603 243.7 175.061 252.984 179.597L254.937 180.556C256.958 181.545 258.417 182.234 259.846 182.861L260.236 183.03C275.812 189.758 291.736 190.883 317.6 188.911L322.703 188.499L334.005 187.543C336.973 187.302 339.096 187.148 341.543 186.993L343.904 186.853C353.979 186.305 364.733 186.296 382.294 186.646L394.372 186.899C418.579 187.376 429.492 187.247 441.127 186.05C454.643 184.658 463.446 175.22 467.055 161.239C469.98 149.907 468.916 136.685 464.841 130.403C456.703 117.858 444.557 110.302 433.381 113.784C429.677 114.938 425.017 112.217 422.639 107.754C421.347 105.33 420.692 103.143 419.615 98.2441L419.094 95.8726C418.793 94.5323 418.573 93.6358 418.294 92.6283C414.503 78.9084 404.149 67.193 390.999 61.744C385.229 59.3531 379.358 58.3048 373.785 58.8704ZM389.402 65.5988C401.161 70.4716 410.502 80.8978 414.092 93.1068L414.273 93.7399C414.531 94.6757 414.74 95.5244 415.029 96.8152L415.673 99.7426C416.757 104.604 417.489 106.961 418.957 109.716C422.123 115.66 428.48 119.451 434.275 117.869L434.622 117.767C443.588 114.974 454.102 121.515 461.34 132.673C464.702 137.856 465.672 149.904 463.015 160.196C459.805 172.632 452.272 180.708 440.699 181.899L439.402 182.029C428.746 183.054 418.146 183.177 396.284 182.763L380.323 182.435C363.86 182.124 353.475 182.154 343.672 182.688L339.826 182.923C337.082 183.107 334.464 183.313 330.189 183.674L318.403 184.664C292.876 186.677 277.355 185.712 262.544 179.479L261.891 179.2C260.653 178.666 259.416 178.092 257.794 177.306L254.131 175.515C244.665 170.925 239.918 169.395 233.596 169.726C229.274 169.953 226.042 170.961 219.338 173.756L216.373 174.991C215.2 175.472 214.381 175.789 213.442 176.13C207.52 178.276 201.217 179.373 194.918 179.354C190.035 179.34 186.271 178.58 183.315 176.768C179.996 174.735 177.959 171.104 178.443 167.877C178.886 164.925 181.152 162.286 185.225 159.442C201.403 148.143 221.627 143.689 250.358 142.945L251.528 142.916C266.267 142.588 273.727 140.838 279.12 134.021C280.647 132.09 281.547 130.36 283.006 126.841L284.135 124.098C284.706 122.739 285.111 121.877 285.611 120.956C291.206 110.664 303.262 105.751 321.763 103.887L323.437 103.728C334.521 102.74 341.265 100.169 343.785 93.506L343.921 93.1316C349.696 76.4745 360.945 64.3672 374.206 63.0216C378.833 62.552 383.784 63.3797 388.728 65.3264L389.402 65.5988Z" fill="#00160A"/>
</svg>
