<svg width="119" height="19" viewBox="0 0 119 19" fill="none" xmlns="http://www.w3.org/2000/svg">
<path d="M6.12 13.0395C7.096 14.0475 8.272 14.5515 9.648 14.5515C11.024 14.5515 12.192 14.0475 13.152 13.0395C14.112 12.0315 14.592 10.8315 14.592 9.43947C14.592 8.04747 14.112 6.84747 13.152 5.83947C12.192 4.83147 11.024 4.32747 9.648 4.32747C8.272 4.32747 7.096 4.83147 6.12 5.83947C5.16 6.84747 4.68 8.04747 4.68 9.43947C4.68 10.8315 5.16 12.0315 6.12 13.0395ZM15.864 15.6555C14.152 17.3835 12.08 18.2475 9.648 18.2475C7.216 18.2475 5.136 17.3915 3.408 15.6795C1.696 13.9515 0.84 11.8715 0.84 9.43947C0.84 7.00747 1.696 4.93547 3.408 3.22347C5.136 1.49547 7.216 0.631471 9.648 0.631471C12.08 0.631471 14.152 1.49547 15.864 3.22347C17.592 4.95147 18.456 7.02347 18.456 9.43947C18.456 11.8555 17.592 13.9275 15.864 15.6555ZM25.5771 18.2475C23.5931 18.2475 21.9931 17.6715 20.7771 16.5195C19.5611 15.3675 18.9211 14.0235 18.8571 12.4875H22.6731C22.8011 13.1915 23.1211 13.7435 23.6331 14.1435C24.1611 14.5275 24.8091 14.7195 25.5771 14.7195C26.2331 14.7195 26.7611 14.5835 27.1611 14.3115C27.5771 14.0395 27.7851 13.6715 27.7851 13.2075C27.7851 12.3915 27.0411 11.7755 25.5531 11.3595L23.8971 10.9275C22.4731 10.5435 21.3531 9.91947 20.5371 9.05547C19.7211 8.19147 19.3051 7.11147 19.2891 5.81547C19.2891 4.23147 19.8171 2.97547 20.8731 2.04747C21.9451 1.10347 23.3691 0.631471 25.1451 0.631471C26.9371 0.631471 28.3931 1.17547 29.5131 2.26347C30.6331 3.33547 31.2251 4.56747 31.2891 5.95947H27.4971C27.3211 5.33547 27.0171 4.87947 26.5851 4.59147C26.1531 4.30347 25.6731 4.15947 25.1451 4.15947C24.5531 4.15947 24.0731 4.27947 23.7051 4.51947C23.3371 4.75947 23.1451 5.10347 23.1291 5.55147C23.1131 5.99947 23.2731 6.36747 23.6091 6.65547C23.9611 6.94347 24.4891 7.18347 25.1931 7.37547L27.1371 7.87947C28.5611 8.26347 29.6651 8.89547 30.4491 9.77547C31.2491 10.6555 31.6491 11.7595 31.6491 13.0875C31.6491 14.5595 31.0891 15.7915 29.9691 16.7835C28.8491 17.7595 27.3851 18.2475 25.5771 18.2475ZM33.1266 17.9595V0.919472H36.9426V17.9595H33.1266ZM45.0208 18.2475C43.0368 18.2475 41.4368 17.6715 40.2208 16.5195C39.0048 15.3675 38.3648 14.0235 38.3008 12.4875H42.1168C42.2448 13.1915 42.5648 13.7435 43.0768 14.1435C43.6048 14.5275 44.2528 14.7195 45.0208 14.7195C45.6768 14.7195 46.2048 14.5835 46.6048 14.3115C47.0208 14.0395 47.2288 13.6715 47.2288 13.2075C47.2288 12.3915 46.4848 11.7755 44.9968 11.3595L43.3408 10.9275C41.9168 10.5435 40.7968 9.91947 39.9808 9.05547C39.1648 8.19147 38.7488 7.11147 38.7328 5.81547C38.7328 4.23147 39.2608 2.97547 40.3168 2.04747C41.3888 1.10347 42.8128 0.631471 44.5888 0.631471C46.3808 0.631471 47.8368 1.17547 48.9568 2.26347C50.0768 3.33547 50.6688 4.56747 50.7328 5.95947H46.9408C46.7648 5.33547 46.4608 4.87947 46.0288 4.59147C45.5968 4.30347 45.1168 4.15947 44.5888 4.15947C43.9968 4.15947 43.5168 4.27947 43.1488 4.51947C42.7808 4.75947 42.5888 5.10347 42.5728 5.55147C42.5568 5.99947 42.7168 6.36747 43.0528 6.65547C43.4048 6.94347 43.9328 7.18347 44.6368 7.37547L46.5808 7.87947C48.0048 8.26347 49.1088 8.89547 49.8928 9.77547C50.6928 10.6555 51.0928 11.7595 51.0928 13.0875C51.0928 14.5595 50.5328 15.7915 49.4128 16.7835C48.2928 17.7595 46.8288 18.2475 45.0208 18.2475ZM52.5703 17.9595V0.919472H58.3783C60.7783 0.919472 62.8263 1.75147 64.5223 3.41547C66.2183 5.07947 67.0663 7.08747 67.0663 9.43947C67.0663 11.7915 66.2183 13.7995 64.5223 15.4635C62.8263 17.1275 60.7783 17.9595 58.3783 17.9595H52.5703ZM56.3863 14.4555H58.3783C59.7863 14.4555 60.9383 13.9755 61.8343 13.0155C62.7463 12.0395 63.2023 10.8475 63.2023 9.43947C63.2023 8.03147 62.7463 6.84747 61.8343 5.88747C60.9383 4.91147 59.7863 4.42347 58.3783 4.42347H56.3863V14.4555ZM68.5266 17.9595V0.919472H72.3426V7.59147H79.2066V0.919472H83.0226V17.9595H79.2066V11.2155H72.3426V17.9595H68.5266ZM85.4203 17.9595V0.919472H91.2283C93.6283 0.919472 95.6763 1.75147 97.3723 3.41547C99.0683 5.07947 99.9163 7.08747 99.9163 9.43947C99.9163 11.7915 99.0683 13.7995 97.3723 15.4635C95.6763 17.1275 93.6283 17.9595 91.2283 17.9595H85.4203ZM89.2363 14.4555H91.2283C92.6363 14.4555 93.7883 13.9755 94.6843 13.0155C95.5963 12.0395 96.0523 10.8475 96.0523 9.43947C96.0523 8.03147 95.5963 6.84747 94.6843 5.88747C93.7883 4.91147 92.6363 4.42347 91.2283 4.42347H89.2363V14.4555ZM101.377 0.919472H104.857L110.161 8.26347L115.513 0.919472H118.993V17.9595H115.153V7.47147L110.185 14.3355L105.193 7.44747V17.9595H101.377V0.919472Z" fill="black"/>
</svg>
