<svg width="378" height="21" viewBox="0 0 378 21" fill="none" xmlns="http://www.w3.org/2000/svg">
<path d="M9.634 17.374C11.4367 17.374 12.962 16.7327 14.21 15.45C15.458 14.1673 16.082 12.6073 16.082 10.77C16.082 8.93267 15.458 7.37267 14.21 6.09C12.962 4.80733 11.4367 4.166 9.634 4.166C7.814 4.166 6.28 4.80733 5.032 6.09C3.784 7.37267 3.16 8.93267 3.16 10.77C3.16 12.6073 3.784 14.1673 5.032 15.45C6.28 16.7327 7.814 17.374 9.634 17.374ZM16.394 17.53C14.5393 19.3847 12.286 20.312 9.634 20.312C6.982 20.312 4.72867 19.3933 2.874 17.556C1.01933 15.7013 0.0920001 13.4393 0.0920001 10.77C0.0920001 8.10067 1.01933 5.84733 2.874 4.01C4.72867 2.15533 6.982 1.228 9.634 1.228C12.286 1.228 14.5393 2.15533 16.394 4.01C18.2487 5.86467 19.176 8.118 19.176 10.77C19.176 13.422 18.2487 15.6753 16.394 17.53ZM42.846 4.166C42.326 4.166 41.8753 3.984 41.494 3.62C41.1126 3.23867 40.922 2.77933 40.922 2.242C40.922 1.722 41.1126 1.28 41.494 0.915999C41.8753 0.534666 42.326 0.343999 42.846 0.343999C43.3833 0.343999 43.834 0.534666 44.198 0.915999C44.562 1.28 44.744 1.722 44.744 2.242C44.744 2.77933 44.562 3.23867 44.198 3.62C43.834 3.984 43.3833 4.166 42.846 4.166ZM41.416 20V7H44.276V20H41.416ZM23.138 20V9.548H20.434V7H23.138V4.66C23.138 3.256 23.5453 2.19 24.36 1.462C25.192 0.716665 26.2666 0.343999 27.584 0.343999C28.3813 0.343999 29.092 0.447999 29.716 0.656V3.204C29.4386 3.03067 28.9273 2.944 28.182 2.944C27.4193 2.944 26.8646 3.11733 26.518 3.464C26.1713 3.79333 25.998 4.35667 25.998 5.154V7H29.04V9.548H25.998V20H23.138ZM32.55 20V9.548H30.392V7H32.55V4.66C32.55 3.256 32.9573 2.19 33.772 1.462C34.604 0.716665 35.6786 0.343999 36.996 0.343999C37.7413 0.343999 38.452 0.447999 39.128 0.656V3.204C38.7293 3.03067 38.218 2.944 37.594 2.944C36.8313 2.944 36.2766 3.11733 35.93 3.464C35.5833 3.79333 35.41 4.35667 35.41 5.154V7H39.128V9.548H35.41V20H32.55ZM53.7605 20.26C51.8018 20.26 50.1725 19.61 48.8725 18.31C47.5898 16.9927 46.9485 15.3893 46.9485 13.5C46.9485 11.6107 47.5898 10.016 48.8725 8.716C50.1725 7.39867 51.8018 6.74 53.7605 6.74C55.4418 6.74 56.8718 7.208 58.0505 8.144C59.2465 9.08 60.0178 10.2847 60.3645 11.758H57.3485C57.0885 11.03 56.6378 10.4493 55.9965 10.016C55.3725 9.56533 54.6271 9.34 53.7605 9.34C52.6165 9.34 51.6805 9.73 50.9525 10.51C50.2245 11.29 49.8605 12.2867 49.8605 13.5C49.8605 14.7133 50.2245 15.71 50.9525 16.49C51.6805 17.27 52.6165 17.66 53.7605 17.66C54.6271 17.66 55.3725 17.4433 55.9965 17.01C56.6378 16.5593 57.0885 15.97 57.3485 15.242H60.3645C60.0178 16.7153 59.2465 17.92 58.0505 18.856C56.8718 19.792 55.4418 20.26 53.7605 20.26ZM64.2381 4.166C63.7181 4.166 63.2674 3.984 62.8861 3.62C62.5047 3.23867 62.3141 2.77933 62.3141 2.242C62.3141 1.722 62.5047 1.28 62.8861 0.915999C63.2674 0.534666 63.7181 0.343999 64.2381 0.343999C64.7754 0.343999 65.2261 0.534666 65.5901 0.915999C65.9541 1.28 66.1361 1.722 66.1361 2.242C66.1361 2.77933 65.9541 3.23867 65.5901 3.62C65.2261 3.984 64.7754 4.166 64.2381 4.166ZM62.8081 20V7H65.6681V20H62.8081ZM74.5812 20.26C72.8132 20.26 71.3225 19.6013 70.1092 18.284C68.9132 16.9667 68.3152 15.372 68.3152 13.5C68.3152 11.628 68.9132 10.0333 70.1092 8.716C71.3225 7.39867 72.8132 6.74 74.5812 6.74C75.4652 6.74 76.2799 6.93933 77.0252 7.338C77.7705 7.71933 78.3425 8.18733 78.7412 8.742V7H81.6012V20H78.7412V18.258C78.3425 18.8127 77.7705 19.2893 77.0252 19.688C76.2799 20.0693 75.4652 20.26 74.5812 20.26ZM72.3192 16.464C73.0472 17.2613 73.9745 17.66 75.1012 17.66C76.2279 17.66 77.1552 17.2613 77.8832 16.464C78.6112 15.6667 78.9752 14.6787 78.9752 13.5C78.9752 12.3213 78.6112 11.3333 77.8832 10.536C77.1552 9.73867 76.2279 9.34 75.1012 9.34C73.9745 9.34 73.0472 9.73867 72.3192 10.536C71.5912 11.3333 71.2272 12.3213 71.2272 13.5C71.2272 14.6787 71.5912 15.6667 72.3192 16.464ZM85.2158 20V0.499998H88.0758V20H85.2158ZM111.727 20L107.437 8.716L103.147 20H100.339L95.5815 1.54H98.7795L102.133 14.956L107.437 1.228L112.715 14.956L116.095 1.54H119.319L114.535 20H111.727ZM126.313 20.26C124.371 20.26 122.777 19.6273 121.529 18.362C120.281 17.0793 119.657 15.4587 119.657 13.5C119.657 11.5413 120.272 9.92933 121.503 8.664C122.733 7.38133 124.345 6.74 126.339 6.74C128.349 6.74 129.97 7.442 131.201 8.846C132.431 10.2327 132.977 12.018 132.839 14.202H122.491C122.525 15.2073 122.907 16.048 123.635 16.724C124.363 17.4 125.29 17.738 126.417 17.738C128.011 17.738 129.103 17.1313 129.693 15.918H132.683C132.284 17.1833 131.521 18.2233 130.395 19.038C129.268 19.8527 127.907 20.26 126.313 20.26ZM126.261 9.132C125.325 9.132 124.519 9.40067 123.843 9.938C123.184 10.458 122.759 11.2033 122.569 12.174H129.771C129.563 11.1687 129.138 10.4147 128.497 9.912C127.855 9.392 127.11 9.132 126.261 9.132ZM142.562 20.26C141.678 20.26 140.854 20.0693 140.092 19.688C139.346 19.2893 138.774 18.8127 138.376 18.258V20H135.516V0.499998H138.376V8.742C138.774 8.18733 139.346 7.71933 140.092 7.338C140.854 6.93933 141.678 6.74 142.562 6.74C144.33 6.74 145.812 7.39867 147.008 8.716C148.221 10.0333 148.828 11.628 148.828 13.5C148.828 15.372 148.221 16.9667 147.008 18.284C145.812 19.6013 144.33 20.26 142.562 20.26ZM142.042 17.66C143.168 17.66 144.096 17.2613 144.824 16.464C145.552 15.6667 145.916 14.6787 145.916 13.5C145.916 12.3213 145.552 11.3333 144.824 10.536C144.096 9.73867 143.168 9.34 142.042 9.34C140.898 9.34 139.962 9.73867 139.234 10.536C138.506 11.3333 138.142 12.3213 138.142 13.5C138.142 14.6787 138.506 15.6667 139.234 16.464C139.962 17.2613 140.898 17.66 142.042 17.66ZM156.056 20.26C154.514 20.26 153.214 19.8787 152.156 19.116C151.116 18.3533 150.562 17.3307 150.492 16.048H153.456C153.664 17.3307 154.557 17.972 156.134 17.972C156.776 17.972 157.287 17.8593 157.668 17.634C158.05 17.3913 158.24 17.0447 158.24 16.594C158.24 16.1433 158.093 15.788 157.798 15.528C157.504 15.268 157.01 15.0513 156.316 14.878L154.184 14.306C151.966 13.7167 150.856 12.408 150.856 10.38C150.856 9.288 151.298 8.41267 152.182 7.754C153.066 7.078 154.236 6.74 155.692 6.74C157.096 6.74 158.249 7.09533 159.15 7.806C160.052 8.51667 160.554 9.46133 160.658 10.64H157.798C157.521 9.56533 156.81 9.028 155.666 9.028C155.094 9.028 154.635 9.14933 154.288 9.392C153.942 9.61733 153.768 9.938 153.768 10.354C153.768 11.0993 154.349 11.6193 155.51 11.914L157.694 12.486C160 13.0753 161.152 14.384 161.152 16.412C161.152 17.6427 160.676 18.596 159.722 19.272C158.786 19.9307 157.564 20.26 156.056 20.26ZM165.219 4.166C164.699 4.166 164.248 3.984 163.867 3.62C163.485 3.23867 163.295 2.77933 163.295 2.242C163.295 1.722 163.485 1.28 163.867 0.915999C164.248 0.534666 164.699 0.343999 165.219 0.343999C165.756 0.343999 166.207 0.534666 166.571 0.915999C166.935 1.28 167.117 1.722 167.117 2.242C167.117 2.77933 166.935 3.23867 166.571 3.62C166.207 3.984 165.756 4.166 165.219 4.166ZM163.789 20V7H166.649V20H163.789ZM175.874 20.13C174.556 20.13 173.482 19.766 172.65 19.038C171.835 18.2927 171.428 17.218 171.428 15.814V9.548H168.724V7H171.428V3.386H174.288V7H178.006V9.548H174.288V15.346C174.288 16.1433 174.461 16.7153 174.808 17.062C175.154 17.3913 175.709 17.556 176.472 17.556C177.096 17.556 177.607 17.4693 178.006 17.296V19.844C177.382 20.0347 176.671 20.13 175.874 20.13ZM186.026 20.26C184.085 20.26 182.49 19.6273 181.242 18.362C179.994 17.0793 179.37 15.4587 179.37 13.5C179.37 11.5413 179.986 9.92933 181.216 8.664C182.447 7.38133 184.059 6.74 186.052 6.74C188.063 6.74 189.684 7.442 190.914 8.846C192.145 10.2327 192.691 12.018 192.552 14.202H182.204C182.239 15.2073 182.62 16.048 183.348 16.724C184.076 17.4 185.004 17.738 186.13 17.738C187.725 17.738 188.817 17.1313 189.406 15.918H192.396C191.998 17.1833 191.235 18.2233 190.108 19.038C188.982 19.8527 187.621 20.26 186.026 20.26ZM185.974 9.132C185.038 9.132 184.232 9.40067 183.556 9.938C182.898 10.458 182.473 11.2033 182.282 12.174H189.484C189.276 11.1687 188.852 10.4147 188.21 9.912C187.569 9.392 186.824 9.132 185.974 9.132ZM211.8 18.31C210.5 19.61 208.888 20.26 206.964 20.26C205.04 20.26 203.42 19.61 202.102 18.31C200.802 16.9927 200.152 15.3893 200.152 13.5C200.152 11.6107 200.802 10.016 202.102 8.716C203.42 7.39867 205.04 6.74 206.964 6.74C208.888 6.74 210.5 7.39867 211.8 8.716C213.118 10.016 213.776 11.6107 213.776 13.5C213.776 15.3893 213.118 16.9927 211.8 18.31ZM206.964 17.608C208.091 17.608 209.018 17.218 209.746 16.438C210.492 15.6407 210.864 14.6613 210.864 13.5C210.864 12.3387 210.492 11.368 209.746 10.588C209.018 9.79067 208.091 9.392 206.964 9.392C205.82 9.392 204.876 9.79067 204.13 10.588C203.402 11.368 203.038 12.3387 203.038 13.5C203.038 14.6613 203.402 15.6407 204.13 16.438C204.876 17.218 205.82 17.608 206.964 17.608ZM217.386 20V9.548H214.682V7H217.386V4.816C217.386 3.412 217.802 2.32 218.634 1.54C219.466 0.742666 220.532 0.343999 221.832 0.343999C222.63 0.343999 223.34 0.447999 223.964 0.656V3.204C223.566 3.03067 223.054 2.944 222.43 2.944C221.668 2.944 221.113 3.11733 220.766 3.464C220.42 3.79333 220.246 4.35667 220.246 5.154V7H223.964V9.548H220.246V20H217.386Z" fill="#0B0736"/>
<path d="M239.893 17.374C241.696 17.374 243.221 16.7327 244.469 15.45C245.717 14.1673 246.341 12.6073 246.341 10.77C246.341 8.93267 245.717 7.37267 244.469 6.09C243.221 4.80733 241.696 4.166 239.893 4.166C238.073 4.166 236.539 4.80733 235.291 6.09C234.043 7.37267 233.419 8.93267 233.419 10.77C233.419 12.6073 234.043 14.1673 235.291 15.45C236.539 16.7327 238.073 17.374 239.893 17.374ZM246.653 17.53C244.799 19.3847 242.545 20.312 239.893 20.312C237.241 20.312 234.988 19.3933 233.133 17.556C231.279 15.7013 230.351 13.4393 230.351 10.77C230.351 8.10067 231.279 5.84733 233.133 4.01C234.988 2.15533 237.241 1.228 239.893 1.228C242.545 1.228 244.799 2.15533 246.653 4.01C248.508 5.86467 249.435 8.118 249.435 10.77C249.435 13.422 248.508 15.6753 246.653 17.53ZM257.999 20.312C256.023 20.312 254.42 19.766 253.189 18.674C251.976 17.5647 251.335 16.2387 251.265 14.696H254.307C254.411 15.58 254.819 16.2647 255.529 16.75C256.257 17.2353 257.072 17.478 257.973 17.478C258.875 17.478 259.611 17.27 260.183 16.854C260.773 16.4207 261.067 15.8487 261.067 15.138C261.067 13.89 260.218 12.9887 258.519 12.434L256.257 11.68C253.241 10.7267 251.733 8.95 251.733 6.35C251.733 4.77267 252.271 3.52467 253.345 2.606C254.437 1.68733 255.859 1.228 257.609 1.228C259.429 1.228 260.877 1.75667 261.951 2.814C263.026 3.854 263.624 5.08467 263.745 6.506H260.703C260.513 5.69133 260.123 5.08467 259.533 4.686C258.944 4.27 258.285 4.062 257.557 4.062C256.76 4.062 256.101 4.26133 255.581 4.66C255.061 5.04133 254.793 5.55267 254.775 6.194C254.775 6.85267 254.975 7.39 255.373 7.806C255.772 8.20467 256.405 8.54267 257.271 8.82L259.559 9.548C262.61 10.536 264.135 12.3647 264.135 15.034C264.135 16.594 263.563 17.868 262.419 18.856C261.293 19.8267 259.819 20.312 257.999 20.312ZM267.259 20V1.54H270.301V20H267.259ZM280.052 20.312C278.076 20.312 276.472 19.766 275.242 18.674C274.028 17.5647 273.387 16.2387 273.318 14.696H276.36C276.464 15.58 276.871 16.2647 277.582 16.75C278.31 17.2353 279.124 17.478 280.026 17.478C280.927 17.478 281.664 17.27 282.236 16.854C282.825 16.4207 283.12 15.8487 283.12 15.138C283.12 13.89 282.27 12.9887 280.572 12.434L278.31 11.68C275.294 10.7267 273.786 8.95 273.786 6.35C273.786 4.77267 274.323 3.52467 275.398 2.606C276.49 1.68733 277.911 1.228 279.662 1.228C281.482 1.228 282.929 1.75667 284.004 2.814C285.078 3.854 285.676 5.08467 285.798 6.506H282.756C282.565 5.69133 282.175 5.08467 281.586 4.686C280.996 4.27 280.338 4.062 279.61 4.062C278.812 4.062 278.154 4.26133 277.634 4.66C277.114 5.04133 276.845 5.55267 276.828 6.194C276.828 6.85267 277.027 7.39 277.426 7.806C277.824 8.20467 278.457 8.54267 279.324 8.82L281.612 9.548C284.662 10.536 286.188 12.3647 286.188 15.034C286.188 16.594 285.616 17.868 284.472 18.856C283.345 19.8267 281.872 20.312 280.052 20.312ZM295.171 20V1.54H300.839C303.577 1.54 305.874 2.424 307.729 4.192C309.583 5.96 310.511 8.15267 310.511 10.77C310.511 13.3873 309.583 15.58 307.729 17.348C305.874 19.116 303.577 20 300.839 20H295.171ZM298.213 17.166H300.839C302.78 17.166 304.357 16.5593 305.571 15.346C306.801 14.1327 307.417 12.6073 307.417 10.77C307.417 8.93267 306.801 7.40733 305.571 6.194C304.357 4.98067 302.78 4.374 300.839 4.374H298.213V17.166ZM313.598 20V1.54H316.64V9.184H325.766V1.54H328.808V20H325.766V12.07H316.64V20H313.598ZM333.092 20V1.54H338.76C341.499 1.54 343.795 2.424 345.65 4.192C347.505 5.96 348.432 8.15267 348.432 10.77C348.432 13.3873 347.505 15.58 345.65 17.348C343.795 19.116 341.499 20 338.76 20H333.092ZM336.134 17.166H338.76C340.701 17.166 342.279 16.5593 343.492 15.346C344.723 14.1327 345.338 12.6073 345.338 10.77C345.338 8.93267 344.723 7.40733 343.492 6.194C342.279 4.98067 340.701 4.374 338.76 4.374H336.134V17.166ZM351.52 1.54H354.302L360.75 10.276L367.224 1.54H370.006V20H366.938V6.766L360.776 15.138L354.562 6.74V20H351.52V1.54ZM375.433 20.208C374.827 20.208 374.298 19.9913 373.847 19.558C373.414 19.1073 373.197 18.57 373.197 17.946C373.197 17.3393 373.414 16.8107 373.847 16.36C374.298 15.9093 374.827 15.684 375.433 15.684C376.057 15.684 376.586 15.9093 377.019 16.36C377.47 16.8107 377.695 17.3393 377.695 17.946C377.695 18.57 377.47 19.1073 377.019 19.558C376.586 19.9913 376.057 20.208 375.433 20.208Z" fill="#FEDB80"/>
</svg>
