<svg width="1600" height="1320" viewBox="0 0 1600 1320" fill="none" xmlns="http://www.w3.org/2000/svg">
<path d="M1668 1259L1631.31 1250.3C1594.62 1242 1521.25 1224 1447.88 1233C1374.5 1242 1301.12 1276 1227.75 1285C1154.38 1294 1081 1276 1007.62 1250.3C934.25 1224 860.875 1190 787.5 1181C714.125 1172 640.75 1190 567.375 1202.7C494 1216 420.625 1224 347.25 1241.7C273.875 1259 200.5 1285 127.125 1272C53.75 1259 -19.625 1207 -93 1181C-166.375 1155 -239.75 1155 -313.125 1168C-386.5 1181 -459.875 1207 -533.25 1202.7C-606.625 1198 -680 1164 -753.375 1163.7C-826.75 1164 -900.125 1198 -973.5 1198.3C-1046.88 1198 -1120.25 1164 -1193.63 1146.3C-1267 1129 -1340.38 1129 -1413.75 1133.3C-1487.13 1138 -1560.5 1146 -1633.88 1146.3C-1707.25 1146 -1780.63 1138 -1854 1168C-1927.38 1198 -2000.75 1268 -2074.13 1298C-2147.5 1328 -2220.88 1320 -2294.25 1311C-2367.63 1302 -2441 1294 -2514.38 1289.3C-2587.75 1285 -2661.12 1285 -2734.5 1293.7C-2807.88 1302 -2881.25 1320 -2954.62 1319.7C-3028 1320 -3101.38 1302 -3174.75 1272C-3248.12 1242 -3321.5 1198 -3394.88 1185.3C-3468.25 1172 -3541.62 1190 -3578.31 1198.3L-3615 1207L-3615 1103H-3578.31C-3541.62 1103 -3468.25 1103 -3394.88 1103C-3321.5 1103 -3248.12 1103 -3174.75 1103C-3101.38 1103 -3028 1103 -2954.62 1103C-2881.25 1103 -2807.88 1103 -2734.5 1103C-2661.12 1103 -2587.75 1103 -2514.38 1103C-2441 1103 -2367.63 1103 -2294.25 1103C-2220.88 1103 -2147.5 1103 -2074.13 1103C-2000.75 1103 -1927.38 1103 -1854 1103C-1780.63 1103 -1707.25 1103 -1633.88 1103C-1560.5 1103 -1487.13 1103 -1413.75 1103C-1340.38 1103 -1267 1103 -1193.63 1103C-1120.25 1103 -1046.88 1103 -973.5 1103C-900.125 1103 -826.75 1103 -753.375 1103C-680 1103 -606.625 1103 -533.25 1103C-459.875 1103 -386.5 1103 -313.125 1103C-239.75 1103 -166.375 1103 -93.0002 1103C-19.6252 1103 53.7498 1103 127.125 1103C200.5 1103 273.875 1103 347.25 1103C420.625 1103 494 1103 567.375 1103C640.75 1103 714.125 1103 787.5 1103C860.875 1103 934.25 1103 1007.62 1103C1081 1103 1154.38 1103 1227.75 1103C1301.12 1103 1374.5 1103 1447.88 1103C1521.25 1103 1594.62 1103 1631.31 1103H1668V1259Z" fill="url(#paint0_linear_1410_12)"/>
<path d="M-88 132H1627V1177H-88V132Z" fill="#384579"/>
<path d="M-1400 64.0812L-1364.56 55.4539C-1329.12 46.3539 -1258.25 29.8085 -1187.38 16.4539C-1116.5 3.80847 -1045.62 -5.64608 -974.75 16.4539C-903.875 38.0812 -833 90.0812 -762.125 107.454C-691.25 124.354 -620.375 107.808 -549.5 103.081C-478.625 98.3539 -407.75 107.808 -336.875 116.081C-266 124.354 -195.125 133.808 -124.25 111.708C-53.375 90.0812 17.5 38.0812 88.375 20.7085C159.25 3.80847 230.125 20.3539 301 42.4539C371.875 64.0812 442.75 90.0812 513.625 85.7085C584.5 81.8085 655.375 46.3539 726.25 46.7085C797.125 46.3539 868 81.8085 938.875 81.4539C1009.75 81.8085 1080.62 46.3539 1151.5 25.0812C1222.38 3.80847 1293.25 -5.64608 1364.12 3.45392C1435 12.0812 1505.88 38.0812 1576.75 51.0812C1647.62 64.0812 1718.5 64.0812 1789.38 85.7085C1860.25 107.808 1931.12 150.354 2002 163.708C2072.88 176.354 2143.75 159.808 2214.62 159.454C2285.5 159.808 2356.38 176.354 2427.25 150.708C2498.12 124.354 2569 55.8085 2639.88 46.7085C2710.75 38.0812 2781.62 90.0812 2852.5 111.708C2923.38 133.808 2994.25 124.354 3065.12 124.708C3136 124.354 3206.88 133.808 3277.75 146.454C3348.62 159.808 3419.5 176.354 3490.38 176.708C3561.25 176.354 3632.12 159.808 3667.56 150.708L3703 142.081V246.081H3667.56C3632.12 246.081 3561.25 246.081 3490.38 246.081C3419.5 246.081 3348.62 246.081 3277.75 246.081C3206.88 246.081 3136 246.081 3065.12 246.081C2994.25 246.081 2923.38 246.081 2852.5 246.081C2781.62 246.081 2710.75 246.081 2639.88 246.081C2569 246.081 2498.12 246.081 2427.25 246.081C2356.38 246.081 2285.5 246.081 2214.62 246.081C2143.75 246.081 2072.88 246.081 2002 246.081C1931.12 246.081 1860.25 246.081 1789.38 246.081C1718.5 246.081 1647.62 246.081 1576.75 246.081C1505.88 246.081 1435 246.081 1364.12 246.081C1293.25 246.081 1222.38 246.081 1151.5 246.081C1080.62 246.081 1009.75 246.081 938.875 246.081C868 246.081 797.125 246.081 726.25 246.081C655.375 246.081 584.5 246.081 513.625 246.081C442.75 246.081 371.875 246.081 301 246.081C230.125 246.081 159.25 246.081 88.375 246.081C17.5 246.081 -53.375 246.081 -124.25 246.081C-195.125 246.081 -266 246.081 -336.875 246.081C-407.75 246.081 -478.625 246.081 -549.5 246.081C-620.375 246.081 -691.25 246.081 -762.125 246.081C-833 246.081 -903.875 246.081 -974.75 246.081C-1045.62 246.081 -1116.5 246.081 -1187.38 246.081C-1258.25 246.081 -1329.12 246.081 -1364.56 246.081H-1400V64.0812Z" fill="url(#paint1_linear_1410_12)"/>
<defs>
<linearGradient id="paint0_linear_1410_12" x1="-3615" y1="1319.7" x2="-3615" y2="0" gradientUnits="userSpaceOnUse">
<stop stop-color="#384579"/>
<stop offset="1" stop-color="#384579"/>
</linearGradient>
<linearGradient id="paint1_linear_1410_12" x1="-3615" y1="1319.7" x2="-3615" y2="0" gradientUnits="userSpaceOnUse">
<stop stop-color="#384579"/>
<stop offset="1" stop-color="#384579"/>
</linearGradient>
</defs>
</svg>
